<?xml version="1.0" encoding="UTF-8"?>
<mxfile host="app.diagrams.net" modified="2025-09-19T18:50:00.000Z" agent="5.0" etag="drawio" version="22.0.0" type="device">
  <diagram name="BMC Context Diagram" id="context">
    <mxGraphModel dx="1422" dy="794" grid="1" gridSize="10" guides="1" tooltips="1" connect="1" arrows="1" fold="1" page="1" pageScale="1" pageWidth="1169" pageHeight="827" math="0" shadow="0">
      <root>
        <mxCell id="0" />
        <mxCell id="1" parent="0" />
        
        <!-- Central BMC System -->
        <mxCell id="bmc-system" value="Sistema BMC&#10;Bolsa Comisionista&#10;&#10;• 60M Productos&#10;• Procesamiento Facturas&#10;• Cálculo Comisiones&#10;• Certificados PDF" style="rounded=1;whiteSpace=wrap;html=1;fillColor=#e1f5fe;strokeColor=#01579b;strokeWidth=3;fontSize=14;fontStyle=1;" vertex="1" parent="1">
          <mxGeometry x="484" y="350" width="200" height="120" as="geometry" />
        </mxCell>
        
        <!-- Users -->
        <mxCell id="users" value="Usuarios BMC&#10;&#10;• Operadores Bolsa&#10;• Carga Facturas&#10;• Consulta Productos&#10;• Descarga Certificados" style="rounded=1;whiteSpace=wrap;html=1;fillColor=#e8f5e8;strokeColor=#2e7d32;fontSize=12;" vertex="1" parent="1">
          <mxGeometry x="150" y="200" width="160" height="100" as="geometry" />
        </mxCell>
        
        <!-- External Systems -->
        <mxCell id="external" value="Sistemas Externos&#10;&#10;• Integración SFTP&#10;• Intercambio Archivos&#10;• Datos Regulatorios" style="rounded=1;whiteSpace=wrap;html=1;fillColor=#e8f5e8;strokeColor=#2e7d32;fontSize=12;" vertex="1" parent="1">
          <mxGeometry x="150" y="500" width="160" height="100" as="geometry" />
        </mxCell>
        
        <!-- Administrators -->
        <mxCell id="admins" value="Administradores&#10;&#10;• Gestión Sistema&#10;• Configuración&#10;• Monitoreo" style="rounded=1;whiteSpace=wrap;html=1;fillColor=#e8f5e8;strokeColor=#2e7d32;fontSize=12;" vertex="1" parent="1">
          <mxGeometry x="150" y="350" width="160" height="100" as="geometry" />
        </mxCell>
        
        <!-- DIAN -->
        <mxCell id="dian" value="DIAN&#10;&#10;• Autoridad Tributaria&#10;• Validación Clasificaciones&#10;• Cumplimiento Regulatorio" style="rounded=1;whiteSpace=wrap;html=1;fillColor=#fff3e0;strokeColor=#e65100;fontSize=12;" vertex="1" parent="1">
          <mxGeometry x="800" y="200" width="160" height="100" as="geometry" />
        </mxCell>
        
        <!-- Regulatory Entities -->
        <mxCell id="regulatory" value="Entidades Regulatorias&#10;&#10;• Supervisión Financiera&#10;• Reportes Comisiones&#10;• Información Regulatoria" style="rounded=1;whiteSpace=wrap;html=1;fillColor=#f3e5f5;strokeColor=#4a148c;fontSize=12;" vertex="1" parent="1">
          <mxGeometry x="800" y="350" width="160" height="100" as="geometry" />
        </mxCell>
        
        <!-- Compliance -->
        <mxCell id="compliance" value="Cumplimiento&#10;&#10;• Certificados Legales&#10;• Documentos Oficiales&#10;• Auditoría" style="rounded=1;whiteSpace=wrap;html=1;fillColor=#f3e5f5;strokeColor=#4a148c;fontSize=12;" vertex="1" parent="1">
          <mxGeometry x="800" y="500" width="160" height="100" as="geometry" />
        </mxCell>
        
        <!-- Connections -->
        <mxCell id="conn1" value="Carga Facturas&#10;Consulta Productos" style="edgeStyle=orthogonalEdgeStyle;rounded=0;orthogonalLoop=1;jettySize=auto;html=1;strokeWidth=2;strokeColor=#2e7d32;" edge="1" parent="1" source="users" target="bmc-system">
          <mxGeometry relative="1" as="geometry" />
        </mxCell>
        
        <mxCell id="conn2" value="Gestión Sistema&#10;Configuración" style="edgeStyle=orthogonalEdgeStyle;rounded=0;orthogonalLoop=1;jettySize=auto;html=1;strokeWidth=2;strokeColor=#2e7d32;" edge="1" parent="1" source="admins" target="bmc-system">
          <mxGeometry relative="1" as="geometry" />
        </mxCell>
        
        <mxCell id="conn3" value="Intercambio SFTP&#10;Datos Regulatorios" style="edgeStyle=orthogonalEdgeStyle;rounded=0;orthogonalLoop=1;jettySize=auto;html=1;strokeWidth=2;strokeColor=#2e7d32;" edge="1" parent="1" source="external" target="bmc-system">
          <mxGeometry relative="1" as="geometry" />
        </mxCell>
        
        <mxCell id="conn4" value="Validación Clasificaciones&#10;Consulta Productos" style="edgeStyle=orthogonalEdgeStyle;rounded=0;orthogonalLoop=1;jettySize=auto;html=1;strokeWidth=2;strokeColor=#e65100;" edge="1" parent="1" source="bmc-system" target="dian">
          <mxGeometry relative="1" as="geometry" />
        </mxCell>
        
        <mxCell id="conn5" value="Reportes Comisiones&#10;Información Financiera" style="edgeStyle=orthogonalEdgeStyle;rounded=0;orthogonalLoop=1;jettySize=auto;html=1;strokeWidth=2;strokeColor=#4a148c;" edge="1" parent="1" source="bmc-system" target="regulatory">
          <mxGeometry relative="1" as="geometry" />
        </mxCell>
        
        <mxCell id="conn6" value="Certificados&#10;Documentos Legales" style="edgeStyle=orthogonalEdgeStyle;rounded=0;orthogonalLoop=1;jettySize=auto;html=1;strokeWidth=2;strokeColor=#4a148c;" edge="1" parent="1" source="bmc-system" target="compliance">
          <mxGeometry relative="1" as="geometry" />
        </mxCell>
        
        <!-- Title -->
        <mxCell id="title" value="BMC - Diagrama de Contexto (C4 Level 1)&#10;Sistema Regulatorio de Bolsa Comisionista" style="text;html=1;strokeColor=none;fillColor=none;align=center;verticalAlign=middle;whiteSpace=wrap;rounded=0;fontSize=18;fontStyle=1;" vertex="1" parent="1">
          <mxGeometry x="400" y="50" width="400" height="60" as="geometry" />
        </mxCell>
        
      </root>
    </mxGraphModel>
  </diagram>
</mxfile>
